<svg width="95" height="23" viewBox="0 0 95 23" fill="none" xmlns="http://www.w3.org/2000/svg">
<path d="M0.49 22V1.21H13.63V4.42H4.27V9.73H12.58V12.94H4.27V22H0.49ZM19.7812 11.59C19.7812 12.73 19.9212 13.77 20.2012 14.71C20.4812 15.63 20.8812 16.42 21.4012 17.08C21.9412 17.72 22.5912 18.22 23.3512 18.58C24.1112 18.94 24.9712 19.12 25.9312 19.12C26.8712 19.12 27.7212 18.94 28.4812 18.58C29.2412 18.22 29.8812 17.72 30.4012 17.08C30.9412 16.42 31.3512 15.63 31.6312 14.71C31.9112 13.77 32.0512 12.73 32.0512 11.59C32.0512 10.45 31.9112 9.42 31.6312 8.5C31.3512 7.56 30.9412 6.77 30.4012 6.13C29.8812 5.47 29.2412 4.96 28.4812 4.6C27.7212 4.24 26.8712 4.06 25.9312 4.06C24.9712 4.06 24.1112 4.24 23.3512 4.6C22.5912 4.96 21.9412 5.47 21.4012 6.13C20.8812 6.79 20.4812 7.58 20.2012 8.5C19.9212 9.42 19.7812 10.45 19.7812 11.59ZM36.0112 11.59C36.0112 13.37 35.7412 14.94 35.2012 16.3C34.6812 17.66 33.9612 18.8 33.0412 19.72C32.1412 20.62 31.0812 21.3 29.8612 21.76C28.6412 22.22 27.3412 22.45 25.9612 22.45C24.5812 22.45 23.2712 22.22 22.0312 21.76C20.8112 21.3 19.7412 20.62 18.8212 19.72C17.9212 18.8 17.2012 17.66 16.6612 16.3C16.1212 14.94 15.8512 13.37 15.8512 11.59C15.8512 9.81 16.1212 8.25 16.6612 6.91C17.2012 5.55 17.9312 4.41 18.8512 3.49C19.7912 2.57 20.8712 1.88 22.0912 1.42C23.3112 0.959998 24.6012 0.729998 25.9612 0.729998C27.3212 0.729998 28.6112 0.959998 29.8312 1.42C31.0512 1.88 32.1112 2.57 33.0112 3.49C33.9312 4.41 34.6612 5.55 35.2012 6.91C35.7412 8.25 36.0112 9.81 36.0112 11.59ZM49.878 4.06C47.738 4.06 46.098 4.73 44.958 6.07C43.838 7.39 43.278 9.23 43.278 11.59C43.278 12.71 43.408 13.74 43.668 14.68C43.948 15.6 44.348 16.39 44.868 17.05C45.408 17.71 46.068 18.23 46.848 18.61C47.648 18.97 48.578 19.15 49.638 19.15C50.298 19.15 50.868 19.13 51.348 19.09C51.828 19.03 52.208 18.96 52.488 18.88V11.41H56.268V21.4C55.748 21.6 54.868 21.82 53.628 22.06C52.388 22.3 50.958 22.42 49.338 22.42C47.838 22.42 46.468 22.18 45.228 21.7C43.988 21.22 42.928 20.52 42.048 19.6C41.188 18.68 40.518 17.55 40.038 16.21C39.558 14.87 39.318 13.33 39.318 11.59C39.318 9.85 39.578 8.31 40.098 6.97C40.638 5.63 41.368 4.5 42.288 3.58C43.208 2.64 44.288 1.93 45.528 1.45C46.768 0.969998 48.088 0.729998 49.488 0.729998C50.448 0.729998 51.298 0.799999 52.038 0.939999C52.798 1.06 53.448 1.2 53.988 1.36C54.528 1.52 54.968 1.69 55.308 1.87C55.668 2.05 55.918 2.18 56.058 2.26L54.918 5.35C54.318 4.99 53.568 4.69 52.668 4.45C51.788 4.19 50.858 4.06 49.878 4.06ZM60.6365 22V1.21H73.9865V4.42H64.4165V9.55H72.9365V12.7H64.4165V18.79H74.7065V22H60.6365ZM90.5446 22C89.9646 20.82 89.2346 19.52 88.3546 18.1C87.4746 16.68 86.5546 15.31 85.5946 13.99C85.1946 14.51 84.7546 15.13 84.2746 15.85C83.8146 16.57 83.3446 17.31 82.8646 18.07C82.4046 18.81 81.9746 19.53 81.5746 20.23C81.1746 20.93 80.8546 21.52 80.6146 22H76.3246C77.2246 20.3 78.2646 18.56 79.4446 16.78C80.6246 14.98 81.9046 13.1 83.2846 11.14L76.6246 1.21H81.1246L85.7146 8.32L90.2446 1.21H94.5646L87.9946 11.11C89.5146 13.17 90.8546 15.12 92.0146 16.96C93.1946 18.8 94.1846 20.48 94.9846 22H90.5446Z" fill="#002946"/>
</svg>
