<svg width="90" height="90" viewBox="0 0 90 90" fill="none" xmlns="http://www.w3.org/2000/svg">
<g opacity="0.3" clip-path="url(#clip0_55_1)">
<path fill-rule="evenodd" clip-rule="evenodd" d="M12.8764 44C13.4036 30.283 24.7278 19.2857 38.5715 19.2857V6.42847C38.2372 6.42847 37.9038 6.43274 37.5715 6.44124C16.7622 6.97337 0 24.0647 0 45V83.5715H38.5715V45H12.8572C12.8572 44.6651 12.8637 44.3317 12.8764 44ZM37.5715 46H11.8572V45C11.8572 30.6039 23.3021 18.8318 37.5715 18.3042V7.44158C17.3145 7.97349 1 24.617 1 45V82.5715H37.5715V46Z" fill="white"/>
<path fill-rule="evenodd" clip-rule="evenodd" d="M90 19.2857V6.42847C89.6657 6.42847 89.3323 6.43274 89 6.44124C68.1908 6.97337 51.4285 24.0647 51.4285 45V83.5715H90V45H64.2858C64.2858 44.6651 64.2922 44.3317 64.3049 44C64.8321 30.283 76.1563 19.2857 90 19.2857ZM89 46H63.2858V45C63.2858 30.6039 74.7307 18.8318 89 18.3042V7.44158C68.7431 7.97349 52.4285 24.617 52.4285 45V82.5715H89V46Z" fill="white"/>
</g>
<defs>
<clipPath id="clip0_55_1">
<rect width="90" height="90" fill="white"/>
</clipPath>
</defs>
</svg>
