<svg width="40" height="47" viewBox="0 0 40 47" fill="none" xmlns="http://www.w3.org/2000/svg">
<g id="welder">
<path id="Shape" fill-rule="evenodd" clip-rule="evenodd" d="M40 20.7222C40 13.3222 34.4158 7.21129 27.2423 6.35695L23.4725 1.71695C22.6928 0.757708 21.5366 0.20752 20.3004 0.20752H15.4075C13.154 0.20752 11.3208 2.04148 11.3208 4.29507C11.3208 5.24148 11.6521 6.1645 12.2528 6.8928L15.2543 10.5373C15.0023 10.7917 14.7555 11.0528 14.5208 11.3275L14.0672 11.8581L16.5675 14.3585C15.1336 16.2513 14.3396 18.5781 14.3396 20.9622C14.3396 24.9826 16.5253 28.4936 19.7645 30.3962H3.77358V29.6415H2.26415V30.3962H0V31.9056H2.26415V32.6604H3.77358V31.9056H8.30189V34.9245H5.28302V40.2075C5.28302 41.4558 6.29887 42.4717 7.54717 42.4717H8.30189V44.7358C8.30189 45.9841 9.31774 47 10.566 47H12.0755C13.3238 47 14.3396 45.9841 14.3396 44.7358V42.4717H30.9434V44.7358C30.9434 45.9841 31.9592 47 33.2075 47H34.717C35.9653 47 36.9811 45.9841 36.9811 44.7358V42.4717H37.7358C38.9841 42.4717 40 41.4558 40 40.2075V30.3962H36.2747C38.6581 27.7509 40 24.3185 40 20.7222ZM13.4181 5.93356C13.0392 5.47393 12.8302 4.89129 12.8302 4.29507C12.8302 2.87318 13.9864 1.71695 15.4083 1.71695H20.3011C21.0808 1.71695 21.8098 2.06412 22.3011 2.66941L25.2136 6.25431C24.6008 6.26714 23.9932 6.31846 23.3932 6.40752L21.1283 3.6196C20.9245 3.36903 20.6226 3.22639 20.3004 3.22639H15.4083C14.8189 3.22639 14.3396 3.70563 14.3396 4.29507C14.3396 4.53809 14.4242 4.77733 14.5834 4.97431L17.5894 8.62412C17.1691 8.90035 16.7638 9.19922 16.3721 9.51997L13.4181 5.93356ZM21.7306 6.75393C20.7525 7.02035 19.8075 7.38941 18.9094 7.8528L16.3419 4.73582H20.0906L21.7306 6.75393ZM16.1343 11.7909C18.5819 9.21733 21.9653 7.75469 25.523 7.75469C32.6732 7.75469 38.4906 13.572 38.4906 20.7222C38.4906 24.28 37.0279 27.6634 34.4543 30.1109L26.917 22.5736L26.3857 23.0362C26.0891 23.2951 25.5909 23.6037 24.9057 23.6037C23.6574 23.6037 22.6415 22.5879 22.6415 21.3396C22.6415 20.6536 22.9502 20.157 23.2083 19.8596L23.6717 19.329L16.1343 11.7909ZM32.6053 30.3962H30.8151C31.1857 30.1788 31.5426 29.9381 31.8868 29.6777L32.6053 30.3962ZM15.8491 20.9622C15.8491 18.9766 16.4883 17.037 17.646 15.4362L21.6543 19.4445C21.3147 20.0211 21.1321 20.6739 21.1321 21.3396C21.1321 23.4204 22.8249 25.1132 24.9057 25.1132C25.5706 25.1132 26.2241 24.9313 26.8 24.5917L30.8083 28.6C29.2083 29.757 27.2687 30.3962 25.283 30.3962C20.0808 30.3962 15.8491 26.1645 15.8491 20.9622ZM12.8302 31.9056H24.9057V31.8868C25.0317 31.8905 25.1555 31.9056 25.283 31.9056C26.7147 31.9056 28.1238 31.6128 29.434 31.0762V34.9245H12.8302V31.9056ZM9.81132 31.9056H11.3208V34.9245H9.81132V31.9056ZM12.8302 44.7358C12.8302 45.1524 12.4913 45.4905 12.0755 45.4905H10.566C10.1502 45.4905 9.81132 45.1524 9.81132 44.7358V42.4717H12.8302V44.7358ZM35.4717 44.7358C35.4717 45.1524 35.1328 45.4905 34.717 45.4905H33.2075C32.7917 45.4905 32.4528 45.1524 32.4528 44.7358V42.4717H35.4717V44.7358ZM38.4906 31.9056V40.2075C38.4906 40.6241 38.1517 40.9622 37.7358 40.9622H7.54717C7.13132 40.9622 6.79245 40.6241 6.79245 40.2075V36.4339H30.9434V31.9056H34.1147H34.7057H38.4906Z" fill="#002946"/>
<path id="Shape_2" fill-rule="evenodd" clip-rule="evenodd" d="M25.283 9.26413C23.1932 9.26413 21.1419 9.82187 19.3502 10.8785L20.117 12.1788C21.6762 11.2596 23.4626 10.7736 25.283 10.7736C29.5751 10.7736 33.4309 13.4875 34.8777 17.5253L36.2989 17.0166C34.6377 12.3796 30.2106 9.26413 25.283 9.26413Z" fill="#002946"/>
<path id="Shape_3" fill-rule="evenodd" clip-rule="evenodd" d="M36.6966 18.3871L35.2242 18.7177C35.3117 19.1079 35.3774 19.5079 35.4181 19.9079L36.9192 19.7532C36.8725 19.2958 36.797 18.8354 36.6966 18.3871Z" fill="#002946"/>
<path id="Shape_4" fill-rule="evenodd" clip-rule="evenodd" d="M34.717 33.4151C33.4687 33.4151 32.4528 34.4309 32.4528 35.6792C32.4528 36.9275 33.4687 37.9434 34.717 37.9434C35.9653 37.9434 36.9811 36.9275 36.9811 35.6792C36.9811 34.4309 35.9653 33.4151 34.717 33.4151ZM34.717 36.4339C34.3011 36.4339 33.9623 36.0958 33.9623 35.6792C33.9623 35.2626 34.3011 34.9245 34.717 34.9245C35.1328 34.9245 35.4717 35.2626 35.4717 35.6792C35.4717 36.0958 35.1328 36.4339 34.717 36.4339Z" fill="#002946"/>
</g>
</svg>
